<?xml version="1.0" encoding="utf-8"?>
<!-- Generator: Adobe Illustrator 24.1.2, SVG Export Plug-In . SVG Version: 6.00 Build 0)  -->
<svg version="1.1" id="Warstwa_3" xmlns="http://www.w3.org/2000/svg" xmlns:xlink="http://www.w3.org/1999/xlink" x="0px" y="0px"
	 viewBox="0 0 430 430" style="enable-background:new 0 0 430 430;" xml:space="preserve">
<style type="text/css">
	.st0{fill:#08a88a;}
	.st1{fill:#121331;}
	.st2{fill:none;}
	.st3{fill:#08a88a;fill-opacity:0;}
</style>
<g>
	<path className="st1" d="M299.95,381.19c-3.47,0-6.29-2.81-6.3-6.29c-0.01-3.48,2.81-6.31,6.29-6.31l67.43-0.13V153.4l-67.4,0.13
		c0,0-0.01,0-0.01,0c-3.47,0-6.29-2.81-6.3-6.29c-0.01-3.48,2.81-6.31,6.29-6.31l73.71-0.14c0,0,0.01,0,0.01,0
		c1.67,0,3.27,0.66,4.45,1.84c1.18,1.18,1.85,2.79,1.85,4.46v227.67c0,3.47-2.81,6.29-6.29,6.3l-73.71,0.14
		C299.96,381.19,299.96,381.19,299.95,381.19z"/>
	<path className="st0" d="M324.44,187.97c-3.46,0-6.28-2.8-6.3-6.26c-0.02-3.48,2.78-6.32,6.26-6.34l24.65-0.14c0.01,0,0.02,0,0.04,0
		c3.46,0,6.28,2.8,6.3,6.26c0.02,3.48-2.78,6.32-6.26,6.34l-24.65,0.14C324.46,187.97,324.45,187.97,324.44,187.97z"/>
	<path className="st0" d="M324.44,214.64c-3.46,0-6.28-2.8-6.3-6.26c-0.02-3.48,2.78-6.32,6.26-6.34l24.65-0.14c0.01,0,0.02,0,0.04,0
		c3.46,0,6.28,2.8,6.3,6.26c0.02,3.48-2.78,6.32-6.26,6.34l-24.65,0.14C324.46,214.64,324.45,214.64,324.44,214.64z"/>
	<path className="st0" d="M324.44,241.31c-3.46,0-6.28-2.8-6.3-6.26c-0.02-3.48,2.78-6.32,6.26-6.34l24.65-0.14c0.01,0,0.03,0,0.04,0
		c3.46,0,6.28,2.8,6.3,6.26c0.02,3.48-2.78,6.32-6.26,6.34l-24.65,0.14C324.46,241.31,324.45,241.31,324.44,241.31z"/>
	<path className="st0" d="M324.44,267.98c-3.46,0-6.28-2.8-6.3-6.26c-0.02-3.48,2.78-6.32,6.26-6.34l24.65-0.14c0.01,0,0.02,0,0.04,0
		c3.46,0,6.28,2.8,6.3,6.26c0.02,3.48-2.78,6.32-6.26,6.34l-24.65,0.14C324.46,267.98,324.45,267.98,324.44,267.98z"/>
	<path className="st0" d="M324.44,294.65c-3.46,0-6.28-2.8-6.3-6.26c-0.02-3.48,2.78-6.32,6.26-6.34l24.65-0.14c0.01,0,0.02,0,0.04,0
		c3.46,0,6.28,2.8,6.3,6.26c0.02,3.48-2.78,6.32-6.26,6.34l-24.65,0.14C324.46,294.65,324.45,294.65,324.44,294.65z"/>
	<path className="st0" d="M324.44,321.33c-3.46,0-6.28-2.8-6.3-6.26c-0.02-3.48,2.78-6.32,6.26-6.34l24.65-0.15c0.01,0,0.03,0,0.04,0
		c3.46,0,6.28,2.8,6.3,6.26c0.02,3.48-2.78,6.32-6.26,6.34l-24.65,0.15C324.46,321.33,324.45,321.33,324.44,321.33z"/>
	<path className="st0" d="M324.44,348c-3.46,0-6.28-2.8-6.3-6.26c-0.02-3.48,2.78-6.32,6.26-6.34l24.65-0.15c0.01,0,0.03,0,0.04,0
		c3.46,0,6.28,2.8,6.3,6.26c0.02,3.48-2.78,6.32-6.26,6.34L324.48,348C324.46,348,324.45,348,324.44,348z"/>
	<path className="st1" d="M130.05,381.19c0,0-0.01,0-0.01,0l-73.71-0.14c-3.47-0.01-6.29-2.83-6.29-6.3V147.08
		c0-1.67,0.67-3.28,1.85-4.46c1.18-1.18,2.78-1.84,4.45-1.84c0,0,0.01,0,0.01,0l73.71,0.14c3.48,0.01,6.29,2.83,6.29,6.31
		c-0.01,3.47-2.83,6.29-6.3,6.29c0,0-0.01,0-0.01,0l-67.4-0.13v215.06l67.43,0.13c3.48,0.01,6.29,2.83,6.29,6.31
		C136.34,378.38,133.52,381.19,130.05,381.19z"/>
	<path className="st0" d="M105.56,187.97c-0.01,0-0.02,0-0.04,0l-24.65-0.14c-3.48-0.02-6.28-2.86-6.26-6.34
		c0.02-3.47,2.84-6.26,6.3-6.26c0.01,0,0.02,0,0.04,0l24.65,0.14c3.48,0.02,6.28,2.86,6.26,6.34
		C111.84,185.17,109.02,187.97,105.56,187.97z"/>
	<path className="st0" d="M105.56,214.64c-0.01,0-0.02,0-0.04,0l-24.65-0.14c-3.48-0.02-6.28-2.86-6.26-6.34
		c0.02-3.47,2.84-6.26,6.3-6.26c0.01,0,0.02,0,0.04,0l24.65,0.14c3.48,0.02,6.28,2.86,6.26,6.34
		C111.84,211.84,109.02,214.64,105.56,214.64z"/>
	<path className="st0" d="M105.56,241.31c-0.01,0-0.03,0-0.04,0l-24.65-0.14c-3.48-0.02-6.28-2.86-6.26-6.34
		c0.02-3.47,2.84-6.26,6.3-6.26c0.01,0,0.03,0,0.04,0l24.65,0.14c3.48,0.02,6.28,2.86,6.26,6.34
		C111.84,238.51,109.02,241.31,105.56,241.31z"/>
	<path className="st0" d="M105.56,267.98c-0.01,0-0.02,0-0.04,0l-24.65-0.14c-3.48-0.02-6.28-2.86-6.26-6.34
		c0.02-3.48,2.87-6.31,6.34-6.26l24.65,0.14c3.48,0.02,6.28,2.86,6.26,6.34C111.84,265.19,109.02,267.98,105.56,267.98z"/>
	<path className="st0" d="M105.56,294.65c-0.01,0-0.02,0-0.04,0l-24.65-0.14c-3.48-0.02-6.28-2.86-6.26-6.34
		c0.02-3.48,2.87-6.26,6.34-6.26l24.65,0.14c3.48,0.02,6.28,2.86,6.26,6.34C111.84,291.86,109.02,294.65,105.56,294.65z"/>
	<path className="st0" d="M105.56,321.33c-0.01,0-0.03,0-0.04,0l-24.65-0.15c-3.48-0.02-6.28-2.86-6.26-6.34
		c0.02-3.47,2.84-6.26,6.3-6.26c0.01,0,0.03,0,0.04,0l24.65,0.15c3.48,0.02,6.28,2.86,6.26,6.34
		C111.84,318.53,109.02,321.33,105.56,321.33z"/>
	<path className="st0" d="M105.56,348c-0.01,0-0.03,0-0.04,0l-24.65-0.15c-3.48-0.02-6.28-2.86-6.26-6.34c0.02-3.47,2.84-6.26,6.3-6.26
		c0.01,0,0.03,0,0.04,0l24.65,0.15c3.48,0.02,6.28,2.86,6.26,6.34C111.84,345.2,109.02,348,105.56,348z"/>
	<path className="st1" d="M249.69,381.01h-69.27c-3.48,0-6.3-2.82-6.3-6.3v-81.95c0-3.48,2.82-6.3,6.3-6.3h69.27
		c3.48,0,6.3,2.82,6.3,6.3v81.95C255.99,378.19,253.17,381.01,249.69,381.01z M186.72,368.41h56.67v-69.35h-56.67V368.41z"/>
	<path className="st1" d="M299.28,381.01H130.83c-3.48,0-6.3-2.82-6.3-6.3V55.11c0-3.48,2.82-6.3,6.3-6.3h168.45
		c3.48,0,6.3,2.82,6.3,6.3v319.6C305.58,378.19,302.76,381.01,299.28,381.01z M137.13,368.41h155.85v-307H137.13V368.41z"/>
	<path className="st1" d="M215.05,381.01c-3.48,0-6.3-2.82-6.3-6.3v-80.05c0-3.48,2.82-6.3,6.3-6.3s6.3,2.82,6.3,6.3v80.05
		C221.35,378.19,218.53,381.01,215.05,381.01z"/>
	<path className="st0" d="M274.47,187.39H154.83c-3.48,0-6.3-2.82-6.3-6.3s2.82-6.3,6.3-6.3h119.64c3.48,0,6.3,2.82,6.3,6.3
		S277.95,187.39,274.47,187.39z"/>
	<path className="st0" d="M274.47,214.12H154.83c-3.48,0-6.3-2.82-6.3-6.3s2.82-6.3,6.3-6.3h119.64c3.48,0,6.3,2.82,6.3,6.3
		S277.95,214.12,274.47,214.12z"/>
	<path className="st0" d="M274.47,240.84H154.83c-3.48,0-6.3-2.82-6.3-6.3s2.82-6.3,6.3-6.3h119.64c3.48,0,6.3,2.82,6.3,6.3
		S277.95,240.84,274.47,240.84z"/>
	<path className="st0" d="M274.47,267.57H154.83c-3.48,0-6.3-2.82-6.3-6.3s2.82-6.3,6.3-6.3h119.64c3.48,0,6.3,2.82,6.3,6.3
		S277.95,267.57,274.47,267.57z"/>
	<path className="st0" d="M215.05,154.71c-3.48,0-6.3-2.82-6.3-6.3V90.58c0-3.48,2.82-6.3,6.3-6.3s6.3,2.82,6.3,6.3v57.84
		C221.35,151.89,218.53,154.71,215.05,154.71z"/>
	<path className="st0" d="M243.97,125.79h-57.84c-3.48,0-6.3-2.82-6.3-6.3s2.82-6.3,6.3-6.3h57.84c3.48,0,6.3,2.82,6.3,6.3
		S247.45,125.79,243.97,125.79z"/>
</g>
</svg>
