<?xml version="1.0" encoding="utf-8"?>
<!-- Generator: Adobe Illustrator 24.1.2, SVG Export Plug-In . SVG Version: 6.00 Build 0)  -->
<svg version="1.1" id="outline" xmlns="http://www.w3.org/2000/svg" xmlns:xlink="http://www.w3.org/1999/xlink" x="0px" y="0px"
	 viewBox="0 0 430 430" style="enable-background:new 0 0 430 430;" xml:space="preserve">
<style type="text/css">
	.st0{fill:#121331;}
	.st1{fill:#08a88a;}
	.st2{fill:none;stroke:#121331;stroke-width:12;stroke-linecap:round;stroke-linejoin:round;stroke-miterlimit:10;}
	.st3{fill-opacity:0;}
	.st4{fill:#08a88a;}
</style>
<g>
	<g>
		<path ="st3" d="M248.14,250.35l12.16,80.56c8.05,23.39,41.23,23.07,48.83-0.47c0,0,25.57-134.75,35.91-171.14
			c9.16-32.21-3.33-66.17-35.5-75.46l0,0c-11.97-3.45-24.8-2.7-36.18,2.35c-3.4,1.51-6.81,2.71-10.21,3.79c-15.77,5-32.75,5-48.52,0
			c-3.4-1.08-6.81-2.28-10.21-3.79c-11.38-5.05-24.22-5.8-36.18-2.35l0,0c-32.18,9.29-44.69,43.25-35.5,75.46
			c10.01,35.1,35.91,171.14,35.91,171.14c7.6,23.53,40.78,23.85,48.83,0.47l12.16-80.56C231.84,240.46,245.94,240.46,248.14,250.35z
			"/>
		<path ="st0" d="M193.17,354.28c-0.11,0-0.22,0-0.32,0c-13.89-0.13-25.63-8.76-29.9-21.98c-0.08-0.24-0.14-0.48-0.18-0.72
			c-0.26-1.36-25.96-136.18-35.79-170.62c-10.73-37.63,6.29-73.25,39.61-82.87c13.42-3.87,27.72-2.94,40.28,2.63
			c2.79,1.24,5.84,2.37,9.59,3.56c14.69,4.66,30.21,4.66,44.9,0c3.75-1.19,6.79-2.32,9.59-3.56c12.56-5.57,26.86-6.5,40.28-2.63
			c16.86,4.87,30.03,16.4,37.08,32.49c6.59,15.03,7.49,32.92,2.53,50.38c-10.16,35.72-35.54,169.28-35.79,170.62
			c-0.05,0.25-0.11,0.49-0.19,0.73c-4.27,13.22-16,21.85-29.9,21.98c-0.11,0-0.22,0-0.32,0c-13.75,0-25.5-8.37-29.99-21.41
			c-0.12-0.34-0.21-0.7-0.26-1.06l-12.13-80.31c-0.6-2.31-2.54-2.56-3.35-2.56c0,0,0,0,0,0c-0.82,0-2.76,0.25-3.35,2.56
			l-12.12,80.31c-0.05,0.36-0.14,0.71-0.26,1.06C218.67,345.9,206.92,354.28,193.17,354.28z M174.48,328.94
			c3.3,9.73,11.68,13.27,18.48,13.34c0.06,0,0.13,0,0.19,0c6.73,0,15-3.38,18.49-12.83l12.08-79.99c0.02-0.14,0.05-0.27,0.08-0.41
			c1.61-7.25,7.68-12.11,15.11-12.11c0,0,0,0,0,0c7.42,0,13.49,4.87,15.11,12.12c0.03,0.13,0.06,0.27,0.08,0.41l12.08,79.99
			c3.52,9.54,11.96,12.86,18.68,12.83c6.8-0.07,15.18-3.61,18.48-13.34c1.81-9.52,25.84-135.66,35.96-171.28
			c7.7-27.09-0.61-59.16-31.39-68.05c-10.71-3.09-22.1-2.36-32.09,2.07c-3.21,1.42-6.65,2.7-10.83,4.03
			c-17.06,5.41-35.09,5.41-52.15,0c-4.18-1.32-7.62-2.6-10.83-4.03c-9.98-4.42-21.37-5.16-32.08-2.07
			c-30.82,8.9-39.12,40.97-31.4,68.05C148.32,192.03,172.65,319.37,174.48,328.94z"/>
	</g>
	<path ="st4" d="M82.03,304.09c-1.49,0-2.98-0.55-4.14-1.66c-2.4-2.29-2.49-6.09-0.2-8.48l97.21-101.9
		c2.29-2.4,6.08-2.49,8.48-0.2c2.4,2.29,2.49,6.09,0.2,8.48l-97.21,101.9C85.19,303.47,83.61,304.09,82.03,304.09z"/>
	<g>
		<path ="st3" d="M188.55,132.81c-19.38,10.11-26.89,34.02-16.77,53.39s34.02,26.89,53.39,16.77s26.89-34.02,16.77-53.39
			S207.93,122.7,188.55,132.81z"/>
		<path ="st4" d="M206.91,213.49c-4.59,0-9.21-0.7-13.71-2.12c-11.61-3.65-21.11-11.6-26.74-22.39s-6.72-23.13-3.08-34.75
			c3.65-11.61,11.6-21.11,22.39-26.74l0,0c22.28-11.63,49.86-2.96,61.49,19.32c5.63,10.79,6.72,23.13,3.08,34.75
			c-3.65,11.61-11.6,21.11-22.39,26.74C221.34,211.75,214.16,213.49,206.91,213.49z M191.33,138.13
			c-16.41,8.57-22.8,28.89-14.23,45.3c4.15,7.95,11.15,13.81,19.7,16.5c8.56,2.69,17.65,1.88,25.6-2.27
			c7.95-4.15,13.81-11.15,16.5-19.7c2.69-8.56,1.88-17.65-2.27-25.6C228.06,135.95,207.74,129.57,191.33,138.13L191.33,138.13z"/>
	</g>
</g>
</svg>
