<?xml version="1.0" encoding="utf-8"?>
<!-- Generator: Adobe Illustrator 24.1.2, SVG Export Plug-In . SVG Version: 6.00 Build 0)  -->
<svg version="1.1" id="Warstwa_3" xmlns="http://www.w3.org/2000/svg" xmlns:xlink="http://www.w3.org/1999/xlink" x="0px" y="0px"
	 viewBox="0 0 430 430" style="enable-background:new 0 0 430 430;" xml:space="preserve">
<style type="text/css">
	.st0{fill:#121331;}
	.st1{fill:#08A385;}
	.st2{fill:none;stroke:#121331;stroke-width:14;stroke-linecap:round;stroke-linejoin:round;stroke-miterlimit:10;}
	.st3{fill:none;stroke:#08A385;stroke-width:12;stroke-linecap:round;stroke-linejoin:round;stroke-miterlimit:10;}
	.st4{fill:#06A385;}
	.st5{fill:none;stroke:#121331;stroke-width:12;stroke-linecap:round;stroke-linejoin:round;stroke-miterlimit:10;}
	.st6{fill:#08a88a;}
	.st7{fill:#08A284;}
	.st8{fill:#08A688;}
	.st9{fill:#08a88a;}
</style>
<g>
	<path className="st0" d="M374.27,129.09c0-3.31-2.69-6-6-6s-6,2.69-6,6v98.25H180.44c-2.96-23.03-22.67-40.89-46.49-40.89H114.3V84.69
		c0-13.43,10.93-24.36,24.36-24.36h24.97v29.06c0,3.31,2.69,6,6,6s6-2.69,6-6V54.33c0-3.31-2.69-6-6-6h-30.97
		c-20.05,0-36.36,16.31-36.36,36.36v101.75H67.73v-56.21c0-3.31-2.69-6-6-6s-6,2.69-6,6v103.1c0,0,0,0,0,0s0,0,0,0v43.69
		c0,3.31,2.69,6,6,6h65.29v40.28c0,3.31,2.69,6,6,6s6-2.69,6-6v-40.28h152.06v40.28c0,3.31,2.69,6,6,6s6-2.69,6-6v-40.28h65.19
		c3.31,0,6-2.69,6-6c0-0.19-0.01-0.39-0.03-0.57c0.02-0.19,0.03-0.38,0.03-0.57V129.09z M67.73,198.45h66.22
		c17.19,0,31.52,12.5,34.37,28.89H67.73V198.45z M362.27,271.03H67.73v-31.69h294.54V271.03z"/>
	<g>
		<path className="st0" d="M274.64,368.96H155.47c-3.31,0-6-2.69-6-6s2.69-6,6-6h119.17c3.31,0,6,2.69,6,6S277.95,368.96,274.64,368.96z
			"/>
		<path className="st0" d="M274.64,342.01H155.47c-3.31,0-6-2.69-6-6s2.69-6,6-6h119.17c3.31,0,6,2.69,6,6S277.95,342.01,274.64,342.01z
			"/>
	</g>
	<g>
		<path className="st7" d="M133.02,381.67c-17.74,0-32.17-14.43-32.17-32.17c0-17.74,14.43-32.17,32.17-32.17s32.17,14.43,32.17,32.17
			C165.2,367.23,150.76,381.67,133.02,381.67z M133.02,329.32c-11.12,0-20.17,9.05-20.17,20.17s9.05,20.17,20.17,20.17
			s20.17-9.05,20.17-20.17S144.15,329.32,133.02,329.32z"/>
		<path className="st7" d="M297.08,381.67c-17.74,0-32.17-14.43-32.17-32.17c0-17.74,14.43-32.17,32.17-32.17
			c17.74,0,32.17,14.43,32.17,32.17C329.26,367.23,314.82,381.67,297.08,381.67z M297.08,329.32c-11.12,0-20.17,9.05-20.17,20.17
			s9.05,20.17,20.17,20.17s20.17-9.05,20.17-20.17S308.21,329.32,297.08,329.32z"/>
	</g>
	<path className="st7" d="M180.63,152.33h-22c-9.92,0-18-8.07-18-18v-32.94c0-9.93,8.08-18,18-18h22c9.92,0,18,8.07,18,18v32.94
		C198.63,144.25,190.55,152.33,180.63,152.33z M158.63,95.39c-3.31,0-6,2.69-6,6v32.94c0,3.31,2.69,6,6,6h22c3.31,0,6-2.69,6-6
		v-32.94c0-3.31-2.69-6-6-6H158.63z"/>
</g>
</svg>
