<?xml version="1.0" encoding="utf-8"?>
<!-- Generator: Adobe Illustrator 25.0.1, SVG Export Plug-In . SVG Version: 6.00 Build 0)  -->
<svg version="1.1" id="Layer_1" xmlns="http://www.w3.org/2000/svg" xmlns:xlink="http://www.w3.org/1999/xlink" x="0px" y="0px"
	 viewBox="0 0 430 430" style="enable-background:new 0 0 430 430;" xml:space="preserve">
<style type="text/css">
	.st0{fill:#08a88a;}
	.st1{fill:#121331;}
</style>
<g>
	<path ="st0" d="M258,372h-89c-3.31,0-6-2.69-6-6s2.69-6,6-6h89c3.31,0,6,2.69,6,6S261.31,372,258,372z"/>
	<path ="st0" d="M120,284.94c-38.05,0-69-31.85-69-71c0-39.15,30.95-71,69-71c3.31,0,6,2.69,6,6v130
		C126,282.25,123.31,284.94,120,284.94z M114,155.26c-28.62,3.11-51,28.24-51,58.68s22.38,55.56,51,58.68V155.26z"/>
	<path ="st0" d="M310,284.94c-3.31,0-6-2.69-6-6v-130c0-3.31,2.69-6,6-6c38.05,0,69,31.85,69,71
		C379,253.09,348.05,284.94,310,284.94z M316,155.26v117.35c28.62-3.11,51-28.24,51-58.68S344.62,158.38,316,155.26z"/>
	<path ="st1" d="M299.36,393H130.64c-9.18,0-16.64-7.46-16.64-16.64V53.64c0-9.18,7.46-16.64,16.64-16.64h168.72
		c9.17,0,16.64,7.46,16.64,16.64v322.72C316,385.54,308.54,393,299.36,393z M130.64,49c-2.56,0-4.64,2.08-4.64,4.64v322.72
		c0,2.56,2.08,4.64,4.64,4.64h168.72c2.56,0,4.64-2.08,4.64-4.64V53.64c0-2.56-2.08-4.64-4.64-4.64H130.64z"/>
</g>
</svg>
