<?xml version="1.0" encoding="utf-8"?>
<!-- Generator: Adobe Illustrator 24.1.2, SVG Export Plug-In . SVG Version: 6.00 Build 0)  -->
<svg version="1.1" id="Warstwa_3" xmlns="http://www.w3.org/2000/svg" xmlns:xlink="http://www.w3.org/1999/xlink" x="0px" y="0px"
	 viewBox="0 0 430 430" style="enable-background:new 0 0 430 430;" xml:space="preserve">
<style type="text/css">
	.st0{fill:#08a88a;}
	.st1{fill:#121331;}
	.st2{fill:#08a88a;fill-opacity:0;}
	.st3{fill:none;}
</style>
<g>
	<path className="st1" d="M150.42,396.53H82.16c-7.16,0-12.98-5.82-12.98-12.98v-37c0-7.16,5.82-12.98,12.98-12.98h1.07v-14.13
		l-46.87-52.89c-5.37-6.06-8.33-13.85-8.33-21.95V154.6c0-13.17,10.71-23.88,23.88-23.88c6.39,0,12.39,2.49,16.9,7.01
		s6.99,10.53,6.98,16.92l-0.14,65.61c0.99-0.4,2.03-0.75,3.12-1.05c11.86-3.26,24.59,0.46,33.22,9.72l48.28,51.81
		c1.09,1.17,1.69,2.7,1.69,4.29v48.76c3.04,0.58,5.78,2.24,7.73,4.73c2.48,3.16,3.35,7.2,2.4,11.1l-9.06,37
		C161.6,392.46,156.41,396.53,150.42,396.53z M82.16,346.16c-0.21,0-0.38,0.17-0.38,0.38v37c0,0.21,0.17,0.38,0.38,0.38h68.25
		c0.18,0,0.33-0.12,0.37-0.29l9.06-37.01c0.01-0.06,0.04-0.18-0.07-0.33c-0.12-0.15-0.24-0.15-0.3-0.15H82.16z M95.83,333.56h53.53
		v-46.04l-46.59-49.99c-5.42-5.82-13.33-8.18-20.65-6.16c-4.67,1.28-6.21,3.35-6.5,6.05v0.01L110,276.05
		c2.31,2.6,2.08,6.58-0.52,8.89c-2.6,2.31-6.58,2.08-8.89-0.52L64.61,244c-0.94-1.05-1.49-2.39-1.58-3.79
		c-0.07-1.08-0.07-2.13-0.01-3.15l0.17-82.43c0.01-3.02-1.16-5.85-3.3-7.99s-4.97-3.31-7.98-3.31c-6.22,0-11.28,5.06-11.28,11.28
		v89.99c0,5.01,1.83,9.84,5.16,13.59l48.46,54.68c1.02,1.15,1.58,2.64,1.58,4.18V333.56z"/>
	<path className="st1" d="M347.84,396.53h-68.25c-6,0-11.18-4.07-12.61-9.89l-9.06-37c-0.95-3.9-0.08-7.94,2.4-11.1
		c1.96-2.5,4.69-4.15,7.73-4.73v-48.76c0-1.59,0.6-3.13,1.69-4.29l48.28-51.81c8.63-9.26,21.36-12.98,33.22-9.72
		c1.09,0.3,2.13,0.65,3.12,1.05l-0.14-65.61c-0.01-6.39,2.46-12.4,6.98-16.92s10.52-7.01,16.9-7.01c13.17,0,23.88,10.71,23.88,23.88
		v89.99c0,8.1-2.96,15.89-8.33,21.95l-46.87,52.89v14.13h1.07c7.16,0,12.98,5.82,12.98,12.98v37
		C360.82,390.71,354.99,396.53,347.84,396.53z M270.52,346.16c-0.06,0-0.19,0-0.3,0.15c-0.11,0.15-0.08,0.27-0.07,0.33l9.06,37
		c0.04,0.17,0.19,0.29,0.37,0.29h68.25c0.21,0,0.38-0.17,0.38-0.38v-37c0-0.21-0.17-0.38-0.38-0.38H270.52z M280.64,333.56h53.53
		v-16.52c0-1.54,0.56-3.03,1.58-4.18l48.46-54.68c3.33-3.75,5.16-8.58,5.16-13.59V154.6c0-6.22-5.06-11.28-11.28-11.28
		c-3.02,0-5.85,1.18-7.98,3.31s-3.3,4.97-3.3,7.99l0.17,82.43c0.07,1.02,0.06,2.07-0.01,3.15c-0.09,1.4-0.64,2.73-1.58,3.79
		l-35.98,40.43c-2.31,2.6-6.3,2.83-8.89,0.52s-2.83-6.29-0.52-8.89l34.38-38.64c-0.29-2.7-1.83-4.77-6.5-6.05
		c-7.32-2.02-15.23,0.34-20.65,6.16l-46.59,49.99V333.56z"/>
	<path className="st0" d="M215.18,244.96c-1.61,0-3.22-0.62-4.45-1.84l-90.15-90.14c-13.23-13.22-20.52-30.79-20.52-49.49
		s7.29-36.27,20.52-49.49c13.25-13.23,30.83-20.52,49.5-20.52c16.68,0,32.48,5.82,45.1,16.49c14.67-12.4,33.65-18.21,52.97-16.04
		c15.67,1.76,30.46,8.89,41.63,20.08c13.23,13.25,20.52,30.83,20.52,49.5c0,18.67-7.29,36.24-20.52,49.48h0l-90.15,90.14
		C218.4,244.35,216.79,244.96,215.18,244.96z M170.08,46.07c-15.31,0-29.73,5.98-40.59,16.83c-10.85,10.84-16.82,25.25-16.82,40.58
		s5.97,29.74,16.82,40.58l85.69,85.69l85.69-85.69c10.85-10.85,16.83-25.26,16.83-40.57c0-15.31-5.98-29.73-16.83-40.59
		c-9.29-9.3-21.1-14.99-34.13-16.46c-17.47-1.96-34.61,4.04-47.03,16.46l-0.06,0.06c-2.45,2.46-6.43,2.48-8.9,0.04l-0.08-0.08
		C199.79,52.05,185.39,46.07,170.08,46.07z M305.32,148.52L305.32,148.52L305.32,148.52z"/>
</g>
</svg>
